<?xml version="1.0" standalone="no"?>
<!-- Creator: fig2dev Version 3.2.7 -->
<!-- CreationDate: 2020-03-02 16:00:23 -->
<!-- Magnification: 7.87 -->
<svg	xmlns="http://www.w3.org/2000/svg"
	xmlns:xlink="http://www.w3.org/1999/xlink"
	width="194" height="84"
	viewBox="41 -145 368 157">
<g fill="none">
<!-- Line -->
<polyline points=" 225,-45 270,-45"
	stroke="#5066ff" stroke-width="8px" stroke-linecap="round"/>
<!-- Line -->
<polyline points=" 45,-135 90,-135"
	stroke="#5066ff" stroke-width="8px" stroke-linecap="round"/>
<!-- Line -->
<polyline points=" 45,-45 90,-45"
	stroke="#5066ff" stroke-width="8px" stroke-linecap="round"/>
<!-- Line -->
<polyline points=" 405,-135"
	stroke="#5066ff" stroke-width="8px" stroke-linecap="round"/>
<!-- Line -->
<polyline points=" 405,-45"
	stroke="#5066ff" stroke-width="8px" stroke-linecap="round"/>
<!-- Line -->
<polyline points=" 52,-90 97,-90"
	stroke="#5066ff" stroke-width="8px" stroke-linecap="round"/>
<!-- Line -->
<polyline points=" 320,-45 365,-45"
	stroke="#5066ff" stroke-width="8px" stroke-linecap="round"/>
<!-- Line -->
<polyline points=" 330,-135 375,-135"
	stroke="#5066ff" stroke-width="8px" stroke-linecap="round"/>
<!-- Line -->
<polyline points=" 246,-90 291,-90"
	stroke="#5066ff" stroke-width="8px" stroke-linecap="round"/>
<!-- Line -->
<polyline points=" 330,-90 375,-90"
	stroke="#5066ff" stroke-width="8px" stroke-linecap="round"/>
<!-- Line -->
<polyline points=" 75,-112 120,-112"
	stroke="#5066ff" stroke-width="8px" stroke-linecap="round"/>
<!-- Line -->
<polyline points=" 360,-112 405,-112"
	stroke="#5066ff" stroke-width="8px" stroke-linecap="round"/>
<!-- Line -->
<polyline points=" 178,-67 223,-67"
	stroke="#5066ff" stroke-width="8px" stroke-linecap="round"/>
<!-- Line -->
<polyline points=" 360,-67 405,-67"
	stroke="#5066ff" stroke-width="8px" stroke-linecap="round"/>
<!-- Line -->
<polyline points=" 265,-112 310,-112"
	stroke="#5066ff" stroke-width="8px" stroke-linecap="round"/>
<!-- Line -->
<polyline points=" 166,-112 211,-112"
	stroke="#5066ff" stroke-width="8px" stroke-linecap="round"/>
<!-- Line -->
<polyline points=" 354,-22 399,-22"
	stroke="#5066ff" stroke-width="8px" stroke-linecap="round"/>
<!-- Line -->
<polyline points=" 58,0 103,0"
	stroke="#5066ff" stroke-width="8px" stroke-linecap="round"/>
<!-- Line -->
<polyline points=" 149,0 194,0"
	stroke="#5066ff" stroke-width="8px" stroke-linecap="round"/>
<!-- Line -->
<polyline points=" 244,0 289,0"
	stroke="#5066ff" stroke-width="8px" stroke-linecap="round"/>
<!-- Line -->
<polyline points=" 333,0 378,0"
	stroke="#5066ff" stroke-width="8px" stroke-linecap="round"/>
<!-- Line -->
<polyline points=" 224,-135 269,-135"
	stroke="#5066ff" stroke-width="8px" stroke-linecap="round"/>
<!-- Line -->
<polyline points=" 124,-135 169,-135"
	stroke="#5066ff" stroke-width="8px" stroke-linecap="round"/>
<!-- Line -->
<polyline points=" 137,-45 182,-45"
	stroke="#5066ff" stroke-width="8px" stroke-linecap="round"/>
<!-- Line -->
<polyline points=" 74,-22 119,-22"
	stroke="#5066ff" stroke-width="8px" stroke-linecap="round"/>
<!-- Line -->
<polyline points=" 175,-22 220,-22"
	stroke="#5066ff" stroke-width="8px" stroke-linecap="round"/>
<!-- Line -->
<polyline points=" 268,-22 313,-22"
	stroke="#5066ff" stroke-width="8px" stroke-linecap="round"/>
<!-- Line -->
<polyline points=" 266,-67 311,-67"
	stroke="#5066ff" stroke-width="8px" stroke-linecap="round"/>
<!-- Line -->
<polyline points=" 89,-67 134,-67"
	stroke="#5066ff" stroke-width="8px" stroke-linecap="round"/>
<!-- Line -->
<polyline points=" 140,-90 185,-90"
	stroke="#5066ff" stroke-width="8px" stroke-linecap="round"/>
</g>
</svg>
