<?xml version="1.0" standalone="no"?>
<!-- Creator: fig2dev Version 3.2.7 -->
<!-- CreationDate: 2020-03-02 16:00:23 -->
<!-- Magnification: 7.87 -->
<svg	xmlns="http://www.w3.org/2000/svg"
	xmlns:xlink="http://www.w3.org/1999/xlink"
	width="76" height="76"
	viewBox="-73 -73 146 146">
<g fill="none">
<!-- Line -->
<polygon points=" 16,47 10,66 -9,66 -15,47 -9,8 -48,14 -67,8 -67,-11 -48,-17 -9,-11 -15,-49 -9,-69
 10,-69 16,-49 10,-11 48,-17 68,-11 68,8 48,14 10,8" fill="#fefefe"
	stroke="#fefefe" stroke-width="8px"/>
<!-- Line -->
<polygon points=" 10,-11 48,-17 68,-11 68,8 48,14 10,8" fill="#000000"/>
<!-- Line -->
<polygon points=" -9,-11 -15,-49 -9,-69 10,-69 16,-49 10,-11" fill="#000000"/>
<!-- Line -->
<polygon points=" -9,8 -48,14 -67,8 -67,-11 -48,-17 -9,-11" fill="#000000"/>
<!-- Line -->
<polygon points=" 10,8 16,47 10,66 -9,66 -15,47 -9,8" fill="#000000"/>
</g>
</svg>
