<?xml version="1.0" standalone="no"?>
<!-- Creator: fig2dev Version 3.2.7 -->
<!-- CreationDate: 2020-03-02 16:00:23 -->
<!-- Magnification: 7.87 -->
<svg	xmlns="http://www.w3.org/2000/svg"
	xmlns:xlink="http://www.w3.org/1999/xlink"
	width="42" height="31"
	viewBox="-38.2 -33 77 51">
<g fill="none">
<!-- Line -->
<polyline points=" -31,14 32,14"
	stroke="#fefefe" stroke-width="15px" stroke-linejoin="round" stroke-linecap="round"/>
<!-- Line -->
<polyline points=" -22,14 -22,13 -22,6 -21,-4 -19,-13 -17,-19 -15,-24 -10,-26 -5,-28 1,-29 6,-28
 11,-26 16,-24 18,-19 20,-13 22,-4 23,6 23,13 23,14" fill="#fefefe"
	stroke="#fefefe" stroke-width="15px" stroke-linejoin="bevel" stroke-linecap="round"/>
<!-- Line -->
<polyline points=" 23,14 32,14"
	stroke="#000000" stroke-width="8px" stroke-linecap="round"/>
<!-- Line -->
<polyline points=" -31,14 -22,14"
	stroke="#000000" stroke-width="8px" stroke-linecap="round"/>
<!-- Line -->
<polyline points=" -22,14 -22,13 -22,6 -21,-4 -19,-13 -17,-19 -15,-24 -10,-26 -5,-28 1,-29 6,-28
 11,-26 16,-24 18,-19 20,-13 22,-4 23,6 23,13 23,14"
	stroke="#000000" stroke-width="8px" stroke-linejoin="bevel" stroke-linecap="round"/>
<!-- Circle -->
<circle cx="0" cy="0" r="4" fill="#000000"
	stroke="#000000"/>
</g>
</svg>
