<?xml version="1.0" standalone="no"?>
<!-- Creator: fig2dev Version 3.2.7 -->
<!-- CreationDate: 2020-03-02 16:00:23 -->
<!-- Magnification: 7.87 -->
<svg	xmlns="http://www.w3.org/2000/svg"
	xmlns:xlink="http://www.w3.org/1999/xlink"
	width="36" height="33"
	viewBox="-33.5 -33.5 67 61">
<g fill="none">
<!-- Line -->
<polyline points=" -19,-19 19,19"
	stroke="#fefefe" stroke-width="15px" stroke-linejoin="round" stroke-linecap="round"/>
<!-- Line -->
<polyline points=" -19,19 19,-19"
	stroke="#fefefe" stroke-width="15px" stroke-linejoin="round" stroke-linecap="round"/>
<!-- Line -->
<polyline points=" 4,-26 6,-26 8,-25 10,-25 12,-24 15,-22 17,-20 20,-17 22,-15 24,-12 25,-10 25,-8
 26,-6 26,-4"
	stroke="#fefefe" stroke-width="15px" stroke-linejoin="bevel" stroke-linecap="round"/>
<!-- Line -->
<polyline points=" -4,-26 -6,-26 -8,-25 -10,-25 -12,-24 -15,-22 -17,-20 -20,-17 -22,-15 -24,-12
 -25,-10 -25,-8 -26,-6 -26,-4"
	stroke="#fefefe" stroke-width="15px" stroke-linejoin="bevel" stroke-linecap="round"/>
<!-- Line -->
<polyline points=" -19,19 19,-19"
	stroke="#000000" stroke-width="8px"/>
<!-- Line -->
<polyline points=" -19,-19 19,19"
	stroke="#000000" stroke-width="8px"/>
<!-- Line -->
<polyline points=" 4,-26 6,-26 8,-25 10,-25 12,-24 15,-22 17,-20 20,-17 22,-15 24,-12 25,-10 25,-8
 26,-6 26,-4"
	stroke="#000000" stroke-width="8px" stroke-linejoin="bevel"/>
<!-- Line -->
<polyline points=" -4,-26 -6,-26 -8,-25 -10,-25 -12,-24 -15,-22 -17,-20 -20,-17 -22,-15 -24,-12
 -25,-10 -25,-8 -26,-6 -26,-4"
	stroke="#000000" stroke-width="8px" stroke-linejoin="bevel"/>
</g>
</svg>
